<svg xmlns="http://www.w3.org/2000/svg" width="175.922" height="231.045" viewBox="0 0 175.922 231.045"><g transform="translate(0.48 0.5)"><path d="M173.631,274.355c-4.961-2-22.335-28.394-31-47.092-11.275-24.34-15.49-41.885-17.025-70.874-2.009-37.915,3.8-56.813,21.033-68.426,8.714-5.872,15.329-6.27,24.933-1.5,8.771,4.358,49.865,46.582,47.036,48.33-1.144.707-11.111-3.157-22.148-8.586-24.849-12.224-30.058-13.47-39.625-9.472-11.593,4.844-15.406,14.092-15.123,36.673.478,38.041,10.69,75.6,28.3,104.078,11.608,18.774,11.916,20.212,3.617,16.868Zm11.045-19.905c2.407-28.566,13.144-48.756,25.927-48.756,12.831,0,26.541,19.824,29.712,42.961,2.048,14.94-3.185,11.755-8.355-5.084-4.525-14.739-14.391-25.452-22.374-24.294-7.046,1.022-14.09,13.689-18.17,32.677-4.607,21.439-8.457,22.864-6.74,2.5Zm62.937,2.136c0-.934,6.215-14,13.812-29.035,25.282-50.038,28.028-86.624,7.155-95.345-4.453-1.861-14.665-3.208-24.312-3.208-10.381,0-16.132-.812-15.3-2.162,2.483-4.018,32.647-11.7,46.691-11.891,12.678-.173,14.43.369,19.246,5.958,4.552,5.282,5.294,8.369,5.266,21.913-.041,21.28-4.843,40.208-16.2,63.9-13.449,28.047-36.355,59.469-36.355,49.87ZM198.2,195.979c-7.453-11.374,7.937-24.871,17.479-15.33a13.972,13.972,0,0,1,3.443,8.609c0,11.689-14.6,16.377-20.922,6.721Zm61.362-94.273c-2.958-2.958-5.379-7.44-5.379-9.96,0-6.234,9.553-15.339,16.092-15.339A15.427,15.427,0,0,1,285.6,91.745c0,14.058-15.862,20.128-26.03,9.96ZM160.744,78.5c-6.079-2.3-11.739-10.458-11.739-16.922,0-6.824,9.383-15.848,16.479-15.848,13.09,0,21.449,12.115,16.04,23.25-3.5,7.2-14.086,12.052-20.781,9.519Z" transform="translate(-125.23 -45.728)" fill="#66f5f2" stroke="#66f5f2" stroke-width="1"/></g></svg>