<svg xmlns="http://www.w3.org/2000/svg" width="310" height="209.494" viewBox="0 0 310 209.494"><g transform="translate(-650.745 -3929.974)"><g transform="translate(757.998 3930.474)"><path d="M154.34,183.233c-2.984-1.2-13.433-17.077-18.643-28.323-6.781-14.639-9.316-25.191-10.24-42.627-1.208-22.8,2.286-34.17,12.65-41.154,5.241-3.532,9.219-3.771,15-.9,5.275,2.621,29.991,28.016,28.29,29.068-.688.425-6.682-1.9-13.32-5.164-14.945-7.352-18.078-8.1-23.832-5.7-6.972,2.913-9.266,8.476-9.1,22.057.287,22.88,6.429,45.468,17.02,62.6,6.981,11.291,7.167,12.156,2.175,10.145Zm6.643-11.972c1.448-17.18,7.905-29.324,15.593-29.324,7.717,0,15.963,11.923,17.87,25.838,1.232,8.985-1.916,7.07-5.025-3.058-2.721-8.865-8.655-15.308-13.457-14.611-4.238.615-8.474,8.233-10.928,19.653-2.771,12.894-5.086,13.752-4.054,1.5Zm37.853,1.285c0-.562,3.738-8.42,8.307-17.463,15.206-30.095,16.857-52.1,4.3-57.344-2.678-1.119-8.82-1.929-14.623-1.929-6.244,0-9.7-.489-9.2-1.3,1.493-2.416,19.635-7.037,28.082-7.152,7.625-.1,8.679.222,11.576,3.584,2.737,3.177,3.184,5.034,3.167,13.179-.025,12.8-2.913,24.183-9.746,38.432-8.089,16.868-21.865,35.767-21.865,29.994Zm-29.717-36.451c-4.482-6.841,4.774-14.959,10.513-9.22a8.4,8.4,0,0,1,2.071,5.178c0,7.03-8.778,9.85-12.584,4.042Zm36.906-56.7c-1.779-1.779-3.235-4.475-3.235-5.991,0-3.749,5.745-9.226,9.679-9.226A9.278,9.278,0,0,1,221.68,73.4c0,8.455-9.54,12.106-15.656,5.991ZM146.589,65.437c-3.656-1.383-7.06-6.29-7.06-10.177,0-4.1,5.643-9.531,9.911-9.531,7.873,0,12.9,7.287,9.647,13.983-2.1,4.331-8.472,7.248-12.5,5.725Z" transform="translate(-125.23 -45.728)" fill="#66f5f2" stroke="#66f5f2" stroke-width="1"/></g><text transform="translate(805.745 4127.468)" fill="#66f5f2" stroke="#66f5f2" stroke-width="1" font-size="56" font-family="BerlinSansFB-Reg, Berlin Sans FB" letter-spacing="0.03em"><tspan x="-153.413" y="0">NANODENT</tspan></text></g></svg>