<svg xmlns="http://www.w3.org/2000/svg" viewBox="0 0 98.368 84.048"><defs><style>.a{fill:#1695d9;}</style></defs><g transform="translate(-0.001)"><path class="a" d="M97.532,19.456a5.3,5.3,0,0,0-3.476-2.381,5.708,5.708,0,0,0-3.436.4c-5.3-4.311-10.836-8.473-16.456-12.38A5.358,5.358,0,0,0,67.817.086a5.471,5.471,0,0,0-4.311,3.64L53.712,6.4,47.879,8a.769.769,0,0,0-.334.194,26.262,26.262,0,0,0-13.182-.125.782.782,0,0,0-.162.057,5.738,5.738,0,0,0-1.5-.522c-1.488-.252-2.157,1.058-2.556,1.842-.091.179-.177.349-.263.494L27.708,13.6a.774.774,0,0,0,.3,1.081A287.892,287.892,0,0,0,55.094,27.257a4.983,4.983,0,0,0,1.848.46,2.636,2.636,0,0,0,.48-.043A4.21,4.21,0,0,0,60.044,25.4a3.473,3.473,0,0,0,.64-3.039,3.387,3.387,0,0,0-1.668-1.573l-.224-.122a13.968,13.968,0,0,0-5.089-9.2L59.56,9.7l4.532-1.369a5.545,5.545,0,0,0,2.53,2.182,5.292,5.292,0,0,0,2.02.39,5.782,5.782,0,0,0,3.141-.931L87.728,20.6a5.554,5.554,0,0,0-.283,1.333,5.457,5.457,0,0,0,.733,3.2l-3.75,6.842q-2.737,4.993-5.473,9.984a.751.751,0,0,0-.076.215l-.88.009.147-4.851a.387.387,0,0,0-.43-.4l-1.861.207a1.322,1.322,0,0,0-.666.213,1.364,1.364,0,0,0-.394,1.283l.335,3.574-.856.008-.047-2.248a.388.388,0,0,0-.12-.272.38.38,0,0,0-.277-.107l-11.493.281a.388.388,0,0,0-.359.509l.624,1.892a6.225,6.225,0,0,0-1.844.2,3.051,3.051,0,0,0-1.982,2.515A2.759,2.759,0,0,0,59.8,47.777a3.559,3.559,0,0,0,2.092.495l1.83.018-.156,8.393a19.807,19.807,0,0,0-5.019-1.73,27.656,27.656,0,0,0-21.7,4.687A27.962,27.962,0,0,0,20.062,44.934a16.512,16.512,0,0,0-8.318-.63,7.445,7.445,0,0,0-.723-5.956,7.442,7.442,0,0,0-6.43-3.467,1,1,0,0,0-.211-.334c-.635-.649-1.753-.2-3.386.547-.2.095-.4.183-.5.221a.775.775,0,0,0-.474.9c1,4.148,2.244,9.309,5.713,12.845a26.3,26.3,0,0,0,4.685,3.543L22.5,60.384c4.191,2.7,8.525,5.489,13.539,6.7a31.287,31.287,0,0,0,7.749.756l.24,8.243-2.387-.076a4.2,4.2,0,0,0-2.77.614c-1.205.929-1.2,2.607-1.2,3.509,0,.665,0,2.222,1.184,2.925a3.146,3.146,0,0,0,1.572.347l22.387.632c.174.005.365.011.567.011a4.445,4.445,0,0,0,2.761-.743,2.9,2.9,0,0,0,.453-.442l.026,0,24.138.111h.086a3.57,3.57,0,0,0,2.829-.917,3.635,3.635,0,0,0,.7-2.616L94,48.587h.113a2.73,2.73,0,0,0,1.425-.313c1.183-.7,1.118-2.288,1.094-2.887a3.6,3.6,0,0,0-1.056-2.81,3.3,3.3,0,0,0-2.085-.558l.029-3.466a.388.388,0,0,0-.4-.39l-3.781.154a.388.388,0,0,0-.371.417l.26,3.327L85.1,42.1c1.731-3.248,3.467-6.373,5.148-9.4.876-1.575,1.779-3.2,2.674-4.832a5.459,5.459,0,0,0,4.613-8.417ZM30.955,14.469a3.882,3.882,0,0,1,5.189,2.621Q33.534,15.805,30.955,14.469Zm7.809,3.9a2.207,2.207,0,0,1,1.684-.56,2.864,2.864,0,0,1,2,1.21,3.792,3.792,0,0,1,.6,1.362Q40.9,19.388,38.764,18.364Zm6.98,3.237a2.6,2.6,0,0,1,1.119-.77,1.92,1.92,0,0,1,1.653.191,2.3,2.3,0,0,1,.871,1.431,4.724,4.724,0,0,1,.1.789Q47.61,22.435,45.744,21.6Zm9.929,4.218q-1.773-.714-3.541-1.455a2.926,2.926,0,0,1,1.3-.68,1.907,1.907,0,0,1,1.709.432,2.7,2.7,0,0,1,.649,1.751Zm3.576-2.874c.172.425-.167,1.068-.522,1.641-.45.727-.943,1.447-1.582,1.564a1.474,1.474,0,0,1-.557-.025,3.674,3.674,0,0,0-.9-2.564,2.688,2.688,0,0,0-2.407-.634,3.858,3.858,0,0,0-1.927,1.109q-.54-.227-1.08-.458a6.118,6.118,0,0,0-.128-1.294,3.061,3.061,0,0,0-1.19-1.9A2.672,2.672,0,0,0,46.62,20.1a3.416,3.416,0,0,0-1.607,1.174q-.556-.25-1.11-.5a4.75,4.75,0,0,0-.827-2.207,3.65,3.65,0,0,0-2.555-1.529,2.976,2.976,0,0,0-2.493.976q-.505-.244-1.01-.491a4.665,4.665,0,0,0-6.85-3.538.392.392,0,0,0-.065.044q-.323-.168-.646-.337l1.759-2.952c.113-.189.215-.389.314-.584.442-.868.622-1.066.916-1.017a7.4,7.4,0,0,1,2.016.88c.341.188.663.365.98.513,1.1.516,2.215,1.046,3.318,1.575,2.2,1.055,4.413,2.146,6.592,3.243,4.325,2.176,8.67,4.465,12.917,6.8A2.14,2.14,0,0,1,59.249,22.946ZM56.128,17.43a4.786,4.786,0,0,1,.958,2.309c-2.361-1.283-4.752-2.512-7.153-3.733l-6.92-3.52-3.461-1.759c-.51-.26-1.029-.458-1.541-.7l-.886-.42c-.151-.071-.591-.379-.748-.353.745-.125,1.534-.232,2.357-.3,4.586,2.067,9.139,4.21,13.708,6.315a12.308,12.308,0,0,1,3.506,1.976C56.01,17.3,56.071,17.366,56.128,17.43ZM55.3,15.568,40.4,8.855a20.237,20.237,0,0,1,8.625,1.521A14.6,14.6,0,0,1,55.3,15.568Zm7.114-8.386c-1.639.475-4.672,1.4-5.033,1.511-1.739.548-3.477,1.094-5.222,1.621a16.741,16.741,0,0,0-2.278-1.254c.106.048.552-.151.674-.185l.824-.225,1.573-.431,3.22-.881,7.068-1.934a5.362,5.362,0,0,0,.217,1.5A10.535,10.535,0,0,0,62.411,7.182ZM72.624,5.5a3.934,3.934,0,0,1-.889,2.474,3.583,3.583,0,0,1-.464.459,4.084,4.084,0,0,1-4.056.651,4.041,4.041,0,0,1-2.047-2A3.87,3.87,0,0,1,64.8,5.1a3.95,3.95,0,0,1,.091-.57,3.871,3.871,0,0,1,3.194-2.919,4.308,4.308,0,0,1,.738-.065,3.743,3.743,0,0,1,3.216,1.772,3.934,3.934,0,0,1,.589,2.174ZM88.041,18.944l-6.2-4.133-3.548-2.365c-.76-.507-1.485-1.039-2.218-1.566-.525-.376-1.054-.75-1.6-1.108-.112-.074-1.513-.856-1.5-.872A5.332,5.332,0,0,0,73.99,6.868a18.4,18.4,0,0,0,1.665,1.205c4,2.958,8.04,5.852,11.938,8.959q.83.661,1.653,1.328a5.3,5.3,0,0,0-.793.859C88.447,19.226,88.062,18.958,88.041,18.944ZM75.646,37.974a.776.776,0,0,1,.3-.068l1.417-.158-.134,4.437-1.316.013-.342-3.638C75.537,38.231,75.563,38.035,75.646,37.974Zm-2.184,2.4.038,1.852-9.213.094c-.265,0-.554-.01-.858-.022l-.549-1.665Zm-15.234,16.1a15.888,15.888,0,0,1,6.6,2.849,9.14,9.14,0,0,1,3.309,4.92.759.759,0,0,0-.081.176,38.206,38.206,0,0,0-6.151-1.472,68.578,68.578,0,0,0-10.4-.493,63.485,63.485,0,0,1-10.73-.567,32.788,32.788,0,0,1-3.293-.736c-.005-.013-.01-.025-.015-.037A26.263,26.263,0,0,1,58.228,56.468ZM19.607,46.416A26.358,26.358,0,0,1,35.559,60.553c-7.2-2.423-13.705-6.98-19.575-11.093-1.568-1.1-3.166-2.219-4.659-3.452A14.316,14.316,0,0,1,19.607,46.416ZM9.7,39.157a5.861,5.861,0,0,1,.2,5.605c-.521-.487-1.023-.991-1.5-1.521l-.03-.032a14.2,14.2,0,0,1-3.146-5.161A11.831,11.831,0,0,1,4.8,36.526c0-.02-.007-.057-.011-.1A5.863,5.863,0,0,1,9.7,39.157ZM40.065,66.171c-.719-.066-1.436-.16-2.149-.287-.507-.089-1.014-.181-1.515-.3A23.82,23.82,0,0,1,33.56,64.7a23.191,23.191,0,0,1-2.55-1.113q-1.332-.693-2.637-1.437c-1.706-.97-3.4-2.007-5.036-3.063L23.3,59.06,18.6,56.029,11.26,51.3a25.133,25.133,0,0,1-4.418-3.326c-3-3.063-4.228-7.652-5.161-11.5A15.465,15.465,0,0,1,3.2,35.854c.01.134.018.269.023.361a4.619,4.619,0,0,0,.058.622,13.382,13.382,0,0,0,.486,1.727,15.816,15.816,0,0,0,3.5,5.725,29.849,29.849,0,0,0,4.441,3.971c.866.647,1.776,1.212,2.669,1.816.935.632,1.806,1.351,2.717,2.017,1.512,1.1,3.113,2.091,4.673,3.127,1.588,1.056,3.206,2.077,4.874,3a47.187,47.187,0,0,0,10.906,4.543q1.474.386,2.977.642A64.721,64.721,0,0,0,51.517,64a67.545,67.545,0,0,1,10.162.476c9.368,1.4,17.8,6.818,25.279,11.756l-1.271,1.331a6.2,6.2,0,0,1-1.34-.486q-.689-.276-1.354-.6c-.828-.411-1.653-.841-2.447-1.316-1.647-.983-3.187-2.128-4.784-3.186-.661-.437-1.367-.818-2.031-1.268-.746-.5-1.49-1.017-2.268-1.474a27.234,27.234,0,0,0-5.179-2.417,27.843,27.843,0,0,0-8.83-1.242c-2.387,0-4.783.185-7.143.368l-.186.014A59.676,59.676,0,0,1,40.065,66.171ZM69.91,65.059a15.607,15.607,0,0,1,14.313,2.236,8.266,8.266,0,0,1,2.831,3.4,4.219,4.219,0,0,1-.156,3.641C81.7,70.913,76.05,67.354,69.91,65.059ZM63.174,67.6l-.14,9.078H63c-.2,0-.4,0-.582-.005l-1.037-.033a.785.785,0,0,0,.013-.127l.032-9.185Q62.307,67.43,63.174,67.6Zm-3.317,8.991-14.28-.452-.024-.835,14.3-.092,0,1.3A.748.748,0,0,0,59.857,76.588Zm0-2.154-14.326.092L45.5,73.47l14.361-.321ZM45.477,72.7l-.029-1.026,14.42-.531,0,1.236Zm-.052-1.8-.032-1.082,14.48-.4,0,.952Zm-.054-1.856-.036-1.234c1.708-.066,3.413-.2,5.1-.327a67.193,67.193,0,0,1,9.449-.3l-.005,1.455ZM41.324,81.882a1.557,1.557,0,0,1,3.11.088Zm21.99.615c-.151,0-.3,0-.461-.007l-1.592-.045a1.044,1.044,0,1,1,2.053.053Zm1.877-.418a2.149,2.149,0,0,1-1.09.382,1.818,1.818,0,1,0-3.623-.038l-15.266-.431a2.334,2.334,0,0,0-4.664-.132l-.083,0a1.95,1.95,0,0,1-.825-.131c-.381-.227-.426-1.019-.426-1.6,0-.943.071-1.872.6-2.279a2.251,2.251,0,0,1,1.355-.3c.137,0,.278,0,.42.008h0l20.782.658c.2.007.411.007.633.006,1.012,0,2.159,0,2.6.66A2.719,2.719,0,0,1,65.191,82.079Zm27.325-1.053a2.5,2.5,0,0,1-1.755.4L67.349,81.32a4.711,4.711,0,0,0,.146-1.191l25.294.146A1.349,1.349,0,0,1,92.517,81.026ZM67.422,79.354a3.537,3.537,0,0,0-.529-1.337,3.13,3.13,0,0,0-2.311-1.267l.136-8.8c.362.1.722.2,1.081.324,3.414,1.132,6.508,3.241,9.5,5.28,3.226,2.2,6.563,4.474,10.393,5.625a.761.761,0,0,0,.223.033.772.772,0,0,0,.56-.24l2.243-2.35a.773.773,0,0,0-.133-1.181l-.393-.26a5.7,5.7,0,0,0,.3-5.067,9.767,9.767,0,0,0-3.336-4.059,17.191,17.191,0,0,0-15.6-2.519A10.645,10.645,0,0,0,65.789,58.1q-.332-.262-.69-.506l.173-9.289c3.09.031,6.192.067,9.263.2.671.029,1.342-.093,2.024-.086l1.958.019,5.232.052,8.452.083.25,0c.179.009.107,10.06.142,10.9.141,3.411.07,6.853.11,10.269q.054,4.584.109,9.167c0,.184,0,.367.007.551V79.5ZM94.751,46.941a1.8,1.8,0,0,1-.786.1l-32.056-.315a2.3,2.3,0,0,1-1.217-.212,1.205,1.205,0,0,1-.4-1.085l34.8.4C95.086,46.234,95.029,46.777,94.751,46.941Zm-2.008-7.987-.026,3.072L90,42.054l-.233-2.979ZM93.3,43.57a2.286,2.286,0,0,1,1.328.228,1.788,1.788,0,0,1,.438,1.255l-34.568-.4a1.276,1.276,0,0,1,.711-.7,4.418,4.418,0,0,1,1.237-.138c.292,0,.592.013.889.026.323.013.658.027.973.025Zm-4.4-11.618c-1.869,3.365-3.73,6.715-5.533,10.12-.009.017-.013.034-.021.051l-2.724.027,5.172-9.437,3.435-6.266a5.275,5.275,0,0,0,1.59,1.033c.152.063.309.116.466.164C90.478,29.1,89.674,30.544,88.892,31.951Zm7.037-7.012h0a4.058,4.058,0,0,1-3.4,1.373,3.624,3.624,0,0,1-1.121-.265,3.88,3.88,0,0,1-1.691-1.391,3.97,3.97,0,0,1-.726-2.591,3.872,3.872,0,0,1,.394-1.412,3.781,3.781,0,0,1,1.524-1.584A4.278,4.278,0,0,1,93,18.519a3.738,3.738,0,0,1,3.226,1.771A4.076,4.076,0,0,1,95.928,24.94Zm0,0" transform="translate(0 0)"/><path class="a" d="M349.292,16.925a1.866,1.866,0,0,0-2.14.333,2.413,2.413,0,0,0-.6,2.474,2.019,2.019,0,0,0,1.729,1.376,1.958,1.958,0,0,0,.209.011,2.173,2.173,0,0,0,1.392-.53,2.136,2.136,0,0,0,.773-1.495A2.3,2.3,0,0,0,349.292,16.925ZM349.385,20a1.361,1.361,0,0,1-1.015.339,1.231,1.231,0,0,1-1.081-.856,1.627,1.627,0,0,1,.4-1.667,1.042,1.042,0,0,1,.741-.308,1.321,1.321,0,0,1,.539.122,1.536,1.536,0,0,1,.916,1.423A1.363,1.363,0,0,1,349.385,20Zm0,0" transform="translate(-279.874 -13.516)"/><path class="a" d="M475.627,106.006a1.866,1.866,0,0,0-2.14.333,2.414,2.414,0,0,0-.6,2.474,2.016,2.016,0,0,0,1.729,1.376,1.938,1.938,0,0,0,.209.012,2.173,2.173,0,0,0,1.393-.53,2.139,2.139,0,0,0,.773-1.5A2.3,2.3,0,0,0,475.627,106.006Zm.094,3.073a1.361,1.361,0,0,1-1.015.339,1.23,1.23,0,0,1-1.081-.856,1.626,1.626,0,0,1,.4-1.666,1.119,1.119,0,0,1,1.281-.186,1.536,1.536,0,0,1,.915,1.424A1.361,1.361,0,0,1,475.721,109.079Zm0,0" transform="translate(-381.937 -85.482)"/></g></svg>