<svg xmlns="http://www.w3.org/2000/svg" viewBox="0 0 74.544 84.05"><defs><style>.a{fill:#1695d9;}</style></defs><g transform="translate(-28.952)"><g transform="translate(28.952)"><path class="a" d="M103.444,79.746,99.725,57.978a6.2,6.2,0,0,0-4.343-4.917L85.354,50.036a11.186,11.186,0,0,0-7.762-9.714c.317-.352.612-.7.882-1.047a19.466,19.466,0,0,0,3.987-8.655h.774a3.654,3.654,0,0,0,3.649-3.649V25.1a3.675,3.675,0,0,0-1.892-3.191v-4.5a1.231,1.231,0,1,0-2.462,0v5.05a7.587,7.587,0,0,0-1.636.473,1.236,1.236,0,0,0-.173.077c-.132.06-.264.124-.4.2V13.287a4.975,4.975,0,0,0-4.97-4.97h-3.4a5.106,5.106,0,0,0-3.224,1.15L68.4,9.74a3.438,3.438,0,0,1-4.353,0l-.333-.273a5.107,5.107,0,0,0-3.224-1.15h-3.4a4.975,4.975,0,0,0-4.97,4.97v9.919c-.132-.072-.264-.135-.4-.2a1.234,1.234,0,0,0-.173-.077,7.589,7.589,0,0,0-1.636-.473V9.69a7.236,7.236,0,0,1,7.228-7.228H75.3A7.236,7.236,0,0,1,82.53,9.69v1.935a1.231,1.231,0,1,0,2.462,0V9.69A9.7,9.7,0,0,0,75.3,0H57.146a9.7,9.7,0,0,0-9.69,9.69V21.908A3.674,3.674,0,0,0,45.565,25.1V26.97a3.654,3.654,0,0,0,3.649,3.649h.774a19.464,19.464,0,0,0,3.987,8.655c.27.343.564.694.881,1.046A11.226,11.226,0,0,0,47.1,50.036L37.066,53.061a6.2,6.2,0,0,0-4.343,4.917l-1.51,8.84a1.231,1.231,0,0,0,2.426.414l1.51-8.84a3.748,3.748,0,0,1,2.627-2.974l9.276-2.8v2.435a6.158,6.158,0,0,0-4.681,3.875,6.242,6.242,0,0,0-.365,1.671l-.9,11.507a3.128,3.128,0,0,0,3.119,3.372h1.535a1.231,1.231,0,1,0,0-2.462H44.229a.667.667,0,0,1-.665-.719l.9-11.507a3.779,3.779,0,0,1,.221-1.012,3.722,3.722,0,0,1,3.484-2.372H48.4a3.688,3.688,0,0,1,3.437,2.2,3.775,3.775,0,0,1,.288,1.182l.9,11.507a.667.667,0,0,1-.665.718H50.819a1.231,1.231,0,1,0,0,2.462h1.535a3.129,3.129,0,0,0,3.119-3.372l-.9-11.507A6.234,6.234,0,0,0,54.1,58.65a6.093,6.093,0,0,0-4.586-3.6V51.877L53.745,50.6c.385.811,1.148,2.563,2.659,6.34,1.523,3.811,3.416,8.7,5.231,13.444a1.25,1.25,0,0,0,.045.117c1.211,3.17,2.387,6.275,3.392,8.953a1.231,1.231,0,0,0,2.3,0c1-2.678,2.18-5.783,3.392-8.953a1.222,1.222,0,0,0,.045-.117c1.814-4.746,3.706-9.627,5.228-13.437,1.513-3.782,2.277-5.535,2.662-6.347l4.231,1.277v7.27a6.368,6.368,0,1,0,2.462.005V52.62l9.276,2.8A3.748,3.748,0,0,1,97.3,58.393l3.718,21.768a1.222,1.222,0,0,1-1.2,1.428H32.636a1.222,1.222,0,0,1-1.2-1.428l1.227-7.184a1.231,1.231,0,0,0-2.426-.414L29,79.746a3.683,3.683,0,0,0,3.631,4.3H99.813a3.683,3.683,0,0,0,3.631-4.3Zm-20.9-54.779a5.283,5.283,0,0,1,1.188-.16,1.258,1.258,0,0,0,.6-.143,1.166,1.166,0,0,1,.087.436V26.97a1.189,1.189,0,0,1-1.188,1.188h-.689V24.967ZM49.9,28.158h-.689a1.189,1.189,0,0,1-1.188-1.188V25.1a1.168,1.168,0,0,1,.087-.436,1.255,1.255,0,0,0,.6.143,5.488,5.488,0,0,1,1.188.161v3.19Zm2.462,1.38V26.3a1.727,1.727,0,0,0,2.221-1.656V13.287a2.511,2.511,0,0,1,2.508-2.508h3.4a2.638,2.638,0,0,1,1.666.594l.333.273a5.9,5.9,0,0,0,7.469,0l.333-.273a2.638,2.638,0,0,1,1.666-.594h3.4a2.511,2.511,0,0,1,2.508,2.508V24.649a1.727,1.727,0,0,0,2.221,1.657v3.232c0,1.8-1.242,5.287-3.545,8.215a16.228,16.228,0,0,1-2.95,2.923,1.232,1.232,0,0,0-.11.083,12,12,0,0,1-14.509,0,1.248,1.248,0,0,0-.109-.083,16.24,16.24,0,0,1-2.95-2.923C53.607,34.825,52.365,31.335,52.365,29.538ZM74.288,49.424l-8.064,6.027-8.064-6.027a5.837,5.837,0,0,0,1.248-3.485V43.955a14.454,14.454,0,0,0,13.632,0v1.984A5.837,5.837,0,0,0,74.288,49.424ZM56.107,48.05a3.365,3.365,0,0,0-2.075-.1c-.03.007-.06.015-.088.024l-4.252,1.283a8.744,8.744,0,0,1,7.256-6.9v3.583A3.255,3.255,0,0,1,56.107,48.05Zm3.34,9.88-.007-.017-.185-.467-.033-.083-.177-.447-.012-.031q-.274-.688-.527-1.32l-.037-.092-.144-.357-.052-.129-.137-.338-.04-.1-.239-.589-.063-.155-.09-.22-.1-.234-.036-.088-.028-.067q-.213-.518-.405-.977l0-.007-.2-.474-.1-.232,6.935,5.183-2.9,1.231-.015.007-1.21.514Zm2.937,7.536q-.365-.946-.733-1.9-.576-1.487-1.1-2.832l.459-.2,1.877,2.182Zm3.864,10a1.225,1.225,0,0,0-.126-.207c-.556-1.47-1.262-3.33-2.043-5.377L65.228,63.6h1.993l1.149,6.291C67.551,72.031,66.816,73.97,66.248,75.47Zm1.434-14.336H64.766l-1.38-1.6,2.838-1.205,2.838,1.205ZM70.8,63.567q-.368.951-.733,1.9l-.5-2.745L71.44,60.54l.459.2Q71.373,62.082,70.8,63.567ZM75.512,51.74l-.189.449-.025.06-.2.471-.013.033-.178.432-.033.081-.042.1-.082.2-.1.249-.033.082-.264.649-.042.1-.135.335-.054.133-.142.354-.041.1q-.25.623-.52,1.3l-.018.045-.176.444-.033.084-.186.47,0,.009-.2.519-1.211-.514-.013-.005-2.9-1.232,6.935-5.183Zm2.993-3.771h0a3.364,3.364,0,0,0-2.16.082,3.254,3.254,0,0,1-.84-2.111V42.354a8.676,8.676,0,0,1,7.261,6.9ZM88.058,65.4a3.907,3.907,0,1,1-3.907-3.907A3.911,3.911,0,0,1,88.058,65.4Z" transform="translate(-28.952)"/></g></g></svg>