<svg xmlns="http://www.w3.org/2000/svg" viewBox="0 0 84.094 84.094"><defs><style>.a{fill:#1695d9;}</style></defs><g transform="translate(47.653 46.252)"><path class="a" d="M298.542,281.6a8.409,8.409,0,1,0,8.409,8.409A8.418,8.418,0,0,0,298.542,281.6Zm0,14.016a5.606,5.606,0,1,1,5.606-5.606A5.612,5.612,0,0,1,298.542,295.616Z" transform="translate(-290.133 -281.6)"/></g><g transform="translate(50.457 60.268)"><path class="a" d="M315.609,366.933v5.791l-2.027-1.351a1.4,1.4,0,0,0-1.554,0L310,372.724v-5.791h-2.8v8.409a1.4,1.4,0,0,0,2.179,1.166l3.427-2.285,3.427,2.285a1.4,1.4,0,0,0,2.18-1.166v-8.409Z" transform="translate(-307.2 -366.933)"/></g><g transform="translate(32.236 14.016)"><rect class="a" width="18.22" height="2.803"/></g><g transform="translate(19.622 22.425)"><rect class="a" width="44.85" height="2.803"/></g><g transform="translate(19.622 30.835)"><rect class="a" width="30.835" height="2.803"/></g><g transform="translate(56.063 30.835)"><rect class="a" width="8.409" height="2.803"/></g><g transform="translate(19.622 39.244)"><rect class="a" width="44.85" height="2.803"/></g><g transform="translate(19.622 47.653)"><rect class="a" width="16.819" height="2.803"/></g><g transform="translate(19.622 54.661)"><rect class="a" width="7.008" height="2.803"/></g><g transform="translate(32.236 54.661)"><rect class="a" width="4.205" height="2.803"/></g><g transform="translate(70.079)"><path class="a" d="M433.674,0a7.016,7.016,0,0,0-7.008,7.008v2.8a1.4,1.4,0,0,0,1.4,1.4H439.28a1.4,1.4,0,0,0,1.4-1.4v-2.8A7.016,7.016,0,0,0,433.674,0Zm4.2,8.409h-8.409v-1.4a4.2,4.2,0,0,1,8.409,0Z" transform="translate(-426.666)"/></g><g transform="translate(11.213)"><path class="a" d="M134.141,0H75.275a7.016,7.016,0,0,0-7.008,7.008V74.283h2.8V7.008a4.21,4.21,0,0,1,4.2-4.2h53.263a6.971,6.971,0,0,0-1.4,4.2V77.087a4.21,4.21,0,0,1-4.2,4.2H69.669v2.8h53.26a7.016,7.016,0,0,0,7.008-7.008V7.008a4.21,4.21,0,0,1,4.2-4.2,1.4,1.4,0,1,0,0-2.8Z" transform="translate(-68.267)"/></g><g transform="translate(0 72.882)"><path class="a" d="M65.874,452.142a4.21,4.21,0,0,1-4.2-4.2v-2.8a1.4,1.4,0,0,0-1.4-1.4H1.4a1.4,1.4,0,0,0-1.4,1.4v2.8a7.016,7.016,0,0,0,7.008,7.008H65.874a1.4,1.4,0,0,0,0-2.8Zm-58.866,0a4.21,4.21,0,0,1-4.2-4.2v-1.4H58.866v1.4a6.971,6.971,0,0,0,1.4,4.2Z" transform="translate(0 -443.733)"/></g></svg>